# xmcd
#
# Track frame offsets: 
#        150
#        15054
#        43491
#        59080
#        78201
#        95454
#        119802
#        145307
#        159196
#        179119
#        200284
#        222006
#        237163
#        269705
#        285831
#        316387
#        337215
#
# Disc length: 4781 seconds
#
# Revision: 1
# Processed by: cddbd v1.5.2PL0 Copyright (c) Steve Scherf et al.
# Submitted via: ExactAudioCopy v1.3
#
DISCID=fe12ab11
DTITLE=Various Artist - Akella Presents - vol.59 - Blues-Rock  CD1
DYEAR=2016
DGENRE=Blues-Rock
TTITLE0=Anthony Gomes - Turn It Up!
TTITLE1=David M'ore - Foxy Lady
TTITLE2=Reverend Black Network - Who Are You
TTITLE3=David Gogo - Jet Set (Sigh)
TTITLE4=Fast Eddie Clarke - Walking Too Slow
TTITLE5=Jay Jesse Johnson - If I Knew Then
TTITLE6=Martin J. Andersen - Funky State Of Mind
TTITLE7=Robin Trower - The One Saving Grace
TTITLE8=Bryce Janey - Same Old Thang
TTITLE9=Mark Cook - Fugitive on the Run
TTITLE10=The Buddaheads - Jump In Your Fire
TTITLE11=Kelly Richey - I Went Down Easy
TTITLE12=Chris Buck and The Big Horns - Who's In Front
TTITLE13=Rob Tognoni - Drink My Wine
TTITLE14=Kris Pohlmann - Look The Other Way
TTITLE15=Joe Valeriano - Hard Times
TTITLE16=Gary Eisenbraun - Too Good To Waste
EXTD=
EXTT0=
EXTT1=
EXTT2=
EXTT3=
EXTT4=
EXTT5=
EXTT6=
EXTT7=
EXTT8=
EXTT9=
EXTT10=
EXTT11=
EXTT12=
EXTT13=
EXTT14=
EXTT15=
EXTT16=
PLAYORDER=
